<svg xmlns="http://www.w3.org/2000/svg" viewBox="0 0 256 256" fill="none">
  <defs>
    <linearGradient id="baithakWarm" x1="72" y1="56" x2="182" y2="192" gradientUnits="userSpaceOnUse">
      <stop stop-color="#FFB24A"/>
      <stop offset="1" stop-color="#F2645A"/>
    </linearGradient>
    <linearGradient id="baithakCool" x1="44" y1="28" x2="205" y2="220" gradientUnits="userSpaceOnUse">
      <stop stop-color="#2DAAC2"/>
      <stop offset="1" stop-color="#126C96"/>
    </linearGradient>
  </defs>
  <path d="M128 22C72.77 22 28 65.875 28 120C28 143.66 36.555 165.455 50.807 182.422L42.9 220.05L80.98 206.865C94.62 214.58 110.418 219 128 219C183.23 219 228 175.125 228 121C228 66.875 183.23 22 128 22Z" fill="white"/>
  <path d="M128 22C72.77 22 28 65.875 28 120C28 143.66 36.555 165.455 50.807 182.422L42.9 220.05L80.98 206.865C94.62 214.58 110.418 219 128 219C183.23 219 228 175.125 228 121C228 66.875 183.23 22 128 22Z" stroke="url(#baithakCool)" stroke-width="12" stroke-linejoin="round"/>
  <circle cx="101" cy="91" r="13" fill="url(#baithakWarm)"/>
  <circle cx="155" cy="79" r="18" fill="url(#baithakWarm)"/>
  <circle cx="72" cy="111" r="15" fill="url(#baithakWarm)"/>
  <circle cx="184" cy="111" r="15" fill="url(#baithakWarm)"/>
  <path d="M86 165C77.39 160.2 68.731 150.779 64.436 136.3C62.903 131.132 66.63 126 72.021 126H101.038C106.993 126 110.507 132.638 107.088 137.515C102.236 144.434 96.73 151.645 92.391 157.3C90.562 159.684 88.445 162.137 86 165Z" fill="url(#baithakWarm)"/>
  <path d="M170 165C178.61 160.2 187.269 150.779 191.564 136.3C193.097 131.132 189.37 126 183.979 126H154.962C149.007 126 145.493 132.638 148.912 137.515C153.764 144.434 159.27 151.645 163.609 157.3C165.438 159.684 167.555 162.137 170 165Z" fill="url(#baithakWarm)"/>
  <path d="M92 159C101.061 151.06 109.778 145.327 128 145.327C146.222 145.327 154.939 151.06 164 159V174.224C164 177.757 161.289 180.713 157.767 181.016C147.44 181.904 137.745 182.333 128 182.333C118.255 182.333 108.56 181.904 98.233 181.016C94.711 180.713 92 177.757 92 174.224V159Z" fill="url(#baithakWarm)"/>
  <path d="M107.8 115.613C113.748 108.22 118.605 101.842 128 101.842C137.395 101.842 142.252 108.22 148.2 115.613C152.282 120.687 149.052 128 142.539 128H113.461C106.948 128 103.718 120.687 107.8 115.613Z" fill="url(#baithakWarm)"/>
  <path d="M128 98C116.243 98 106.667 107.576 106.667 119.333C106.667 121.507 107.002 123.603 107.611 125.577C109.026 124.613 110.768 124 112.667 124H143.333C145.232 124 146.974 124.613 148.389 125.577C148.998 123.603 149.333 121.507 149.333 119.333C149.333 107.576 139.757 98 128 98Z" fill="white" fill-opacity=".2"/>
  <path d="M128 108C135.18 108 141 113.82 141 121C141 128.18 135.18 134 128 134C120.82 134 115 128.18 115 121C115 113.82 120.82 108 128 108Z" fill="url(#baithakCool)"/>
  <path d="M146.5 55C155.326 55 162.5 61.531 162.5 69.455C162.5 71.325 162.095 73.118 161.36 74.765L165.014 85L153.509 79.766C151.411 80.442 149.014 80.818 146.5 80.818C137.674 80.818 130.5 74.287 130.5 66.364C130.5 58.44 137.674 55 146.5 55Z" fill="url(#baithakWarm)"/>
</svg>
